<svg viewBox="0 0 80 80" xml:space="preserve" xmlns="http://www.w3.org/2000/svg" enable-background="new 0 0 80 80"><path d="M61.6 19.4c-.5-.2-5.1-1.7-5.6-2-5.8-2.7-6.3-6.7-8.7-7.1-1.5-.3-4.1-.1-7.1-.1H40c-3.1 0-5.6-.2-7.1.1-2.4.4-2.9 4.3-8.7 7.1-.5.2-5.1 1.7-5.6 1.9-5.2 2.3-7.4 11.9-10.5 16.7 2.7 3 6.8 4.4 11.5 5.3.6-.8 2.6-6.9 2.7-5.8 2.7 11.3-1.5 26.7-2.7 30.1 1.6 2.6 10.7 3.8 18.9 4.3h2.7c8.3-.4 17.3-1.6 18.9-4.3-1.2-3.4-5.4-18.8-2.7-30.1.2-1.1 2.1 5 2.7 5.8 4.8-.9 8.8-2.3 11.5-5.3-2.8-4.8-5-14.4-10-16.6zm-14.4.6s-5.5 4.4-7.2 6.4c-1.8-2-7.2-6.4-7.2-6.4H21.6s8.2-3.2 10-8c0 .7.2 1.3.6 2.2v-1.1c.3-1.5 3.4-1.2 7.6-1.2h.4c4.2 0 7.3-.3 7.6 1.2.1.3.1.7 0 1.1.4-1 .6-1.5.6-2.2 1.9 4.8 10 8 10 8H47.2zm-7-4.6h-.4c-3.1 0-5.7-.1-6.9.4 1.9 3.6 6.9 10.2 7 10.7.1-.5 5.1-7.1 7-10.7-1.1-.6-3.6-.4-6.7-.4z" fill="#ee682e" class="fill-1c2b36"></path></svg>